<svg width="23" height="23" viewBox="0 0 23 23" fill="none" xmlns="http://www.w3.org/2000/svg">
<g id="&#228;&#186;&#145;&#229;&#186;&#151;&#233;&#147;&#186;&#229;&#155;&#190;&#230;&#160;&#135;">
<g id="Group 36">
<path id="Vector" d="M21.2695 10.3115H1.73051C0.75513 10.3115 0 9.47453 0 8.47016V1.84134C0 0.803494 0.786594 0 1.73051 0H21.2695C22.2449 0 23 0.836973 23 1.84134V8.47016C23 9.47453 22.2134 10.3115 21.2695 10.3115ZM1.85636 8.30277H21.1122V2.00873H1.85636V8.30277Z" fill="#969799"/>
<path id="Vector_2" d="M20.0378 23H2.96143C1.30765 23 0 21.6945 0 20.0906V8.90053C0 8.26643 0.499983 7.78153 1.15381 7.78153C1.80763 7.78153 1.8938 8.26643 1.8938 8.90053V20.0906C1.8938 20.4636 2.20148 20.762 2.54762 20.762H20.3976C20.7437 20.762 21.0514 20.4636 21.0514 20.0906V8.90053C21.0514 8.26643 21.1916 7.78153 21.8454 7.78153C22.4992 7.78153 22.9992 8.26643 22.9992 8.90053V20.0906C23.0377 21.6945 21.6915 23 20.0378 23ZM18.4993 6.23801H15.4225C14.7687 6.23801 14.2687 5.75311 14.2687 5.11901C14.2687 4.4849 14.7687 4 15.4225 4H18.4993C19.1531 4 19.6531 4.4849 19.6531 5.11901C19.6531 5.75311 19.1531 6.23801 18.4993 6.23801Z" fill="#969799"/>
</g>
</g>
</svg>
